<?xml version="1.0" standalone="no"?>
<!DOCTYPE svg PUBLIC "-//W3C//DTD SVG 20010904//EN"
 "http://www.w3.org/TR/2001/REC-SVG-20010904/DTD/svg10.dtd">
<svg version="1.0" xmlns="http://www.w3.org/2000/svg"
 width="144.000000pt" height="144.000000pt" viewBox="0 0 144.000000 144.000000"
 preserveAspectRatio="xMidYMid meet">
<metadata>
Created by potrace 1.11, written by Peter Selinger 2001-2013
</metadata>
<g transform="translate(0.000000,144.000000) scale(0.100000,-0.100000)"
fill="#000000" stroke="none">
<path d="M0 720 l0 -720 720 0 720 0 0 720 0 720 -720 0 -720 0 0 -720z m640
188 c25 -13 54 -37 65 -55 11 -18 22 -32 25 -32 3 0 14 14 25 31 31 49 68 71
127 75 65 5 114 -18 142 -66 55 -95 -17 -238 -197 -388 -48 -40 -94 -73 -101
-73 -31 0 -184 136 -246 219 -99 131 -98 246 3 292 56 25 103 24 157 -3z"/>
</g>
</svg>
